<?xml version="1.0" encoding="utf-8"?>
<!-- Generator: Adobe Illustrator 18.0.0, SVG Export Plug-In . SVG Version: 6.00 Build 0)  -->
<!DOCTYPE svg PUBLIC "-//W3C//DTD SVG 1.1//EN" "http://www.w3.org/Graphics/SVG/1.1/DTD/svg11.dtd">
<svg version="1.1" id="Слой_1" xmlns="http://www.w3.org/2000/svg" xmlns:xlink="http://www.w3.org/1999/xlink" x="0px" y="0px"
	 viewBox="-39 128 843 768" enable-background="new -39 128 843 768" xml:space="preserve">
<path fill="#1E90FF"      d="
	M798.4,816.9c-6-4.7-20.8-46.9-20.8-46.9c-0.7-8.7-9.4-34.2-9.4-34.2c-6-20.1-23.4-42.2-23.4-42.2s1-3,2.2-1.3l9.2,6.7
	c-10.7-7.4-20.8-42.2-20.8-42.2c4-77.7-34.2-85.1-31.5-87.1s39.5,21.4,39.5,21.4c-1.3-8-60.3-40.2-60.3-40.2l-6.7-21.4l8.7,9.4
	c-0.7-7.4-29.5-52.3-29.5-52.3c-1.3-7.4-20.1-36.2-20.1-36.2l15.4,8c-2.7-6.7-52.9-43.5-52.9-43.5l26.8,8c-2-6-60.3-23.4-60.3-23.4
	l-6-18.8l7.4,10c0-7.4-23.4-40.2-23.4-40.2l20.8,19.4c-2-5.4-34.2-42.2-34.2-42.2l29.5,22.1l-25.5-27.5
	c23.4-15.4,24.1-36.8,24.1-36.8c1.3-46.9-57.6-50.9-57.6-50.9c-21.4-77-113.2-79.1-113.2-79.1c-0.3-2.5,13.2-17.1,13.2-17.1
	c-5.5,0-14.7,12.2-14.7,12.2c0.6-8.6,10.4-20.2,10.4-20.2c-6.7,0.7-14.2,15.9-15.5,25c0,0-91.8,2-113.2,79.1c0,0-59,4-57.6,50.9
	c0,0,0.7,21.4,24.1,36.8l-25.5,27.5l29.5-22.1c0,0-32.2,36.8-34.2,42.2l20.8-19.4c0,0-23.4,32.8-23.4,40.2l7.4-10l-6,18.8
	c0,0-58.3,17.4-60.3,23.4l26.8-8c0,0-50.2,36.8-52.9,43.5l15.4-8c0,0-18.8,28.8-20.1,36.2c0,0-28.8,44.9-29.5,52.3l8.7-9.4L83,550.9
	c0,0-59,32.2-60.3,40.2c0,0,36.8-23.4,39.5-21.4c2.7,2-35.5,9.4-31.5,87.1c0,0-10,34.8-20.8,42.2l9.2-6.7c1.2-1.6,2.2,1.3,2.2,1.3
	S3.9,715.7-2.1,735.8c0,0-8.7,25.5-9.4,34.2c0,0-14.7,42.2-20.8,46.9c0,0-4,12.7,4,18.1c0,0,56.3,13.4,60.3,20.8
	c0,0,20.1,6.7,26.8,0l36.2-9.4c0,0,37.5-26.1,30.8-36.2c0,0,10-10,8-14.7c0,0,12.1-13.4,6-18.8c0,0,0-11.4-6.7-10.7
	c0,0-20.1,2.7-23.4,14.1l-5.4,2.7c0,0-4.7-20.1-12.1-23.4c0,0,0.7-10-2.7-12.1c0,0,1.3-13.4-2-16.7c0,0,8.8-11.9,6.3-19.4
	c1,2.4,4.3,10.2,7.1,11.3c3.3,1.3-6-18.1-3.3-23.4c0,0,16.7-24.8,24.1-26.8c0,0,42.9-26.8,46.9-48.9l-4,22.1
	c0,0,20.1-26.1,15.4-63.6c0,0,16.7-28.8,18.8-36.8c0,0-4,26.8,1.3,44.2l3.3-22.8c0,0,3.3,31.5,5.4,35.5l2-15.4
	c0,0,7.4,22.1-2.7,39.5c0,0-12.7,29.5-12.7,38.2l7.4-14.1c0,0-7.4,31.5,0.7,44.2l-1.3-13.4c0,0,12.1,23.4,17.4,35.5
	c0,0,10.7,18.8,4.7,27.5l4-3.3c0,0-3.3,24.1-12.7,32.8c0,0-72.5,56.5-75.7,59.6c-1.3,1.3-18.8,21.4-2.7,36.8c0,0,14.7,10.1,23.4-0.7
	c0,0,10,15.4,30.8,10l5.4-2c0,0,9.4,9.4,24.1,11.4c0,0,14.7-2,16.1-11.4c0,0,15.4,19.4,34.2,6c0,0,10.1-18.1-10-27.5
	c0,0,14.7-11.4,19.4-32.8c0,0,29.5-31.5,19.4,0c0,0-16.7,13.4-7.4,24.1c0,0,24.8,16.7,37.5-16.1c0,0,4-16.1,7.4-20.1
	c0,0,9.4-17.4-1.3-20.8c0,0-26.1-24.1-26.8-30.8c-0.7-6.7-0.7-6.7-0.7-6.7s4.7,0.7,8.7-0.7c0,0-22.8-15.4-23.4-30.8
	c0,0,0-23.4,3.3-26.8c3.3-3.3,0.7,4,2.7,8.7c2,4.7,4.7-22.1,7.4-22.8c2.7-0.7,1.3,12.7,1.3,12.7s11.4-24.8,15.4-24.8
	c4,0-0.7,6.7-0.7,6.7s12.1-15.1,18.8-13.1c6.7,2,14.7,5.1,22.1,6.3h37.4c7.4-1.2,15.4-4.3,22.1-6.3c6.7-2,18.8,13.3,18.8,13.3
	s-4.7-6.8-0.7-6.8c4,0,15.4,24.8,15.4,24.8s-1.3-13.4,1.3-12.7c2.7,0.7,5.4,27.5,7.4,22.8c2-4.7-0.7-12.1,2.7-8.7
	c3.3,3.3,3.3,26.8,3.3,26.8c-0.7,15.4-23.4,30.8-23.4,30.8c4,1.3,8.7,0.7,8.7,0.7s0,0-0.7,6.7c-0.7,6.7-26.8,30.8-26.8,30.8
	c-10.7,3.3-1.3,20.8-1.3,20.8c3.3,4,7.4,20.1,7.4,20.1c12.7,32.8,37.5,16.1,37.5,16.1c9.4-10.7-7.4-24.1-7.4-24.1
	c-10-31.5,19.4,0,19.4,0c4.7,21.4,19.4,32.8,19.4,32.8c-20.1,9.4-10,27.5-10,27.5c18.8,13.4,34.2-6,34.2-6
	c1.3,9.4,16.1,11.4,16.1,11.4c14.7-2,24.1-11.4,24.1-11.4l5.4,2c20.8,5.4,30.8-10,30.8-10c8.7,10.7,23.4,0.7,23.4,0.7
	c16.1-15.4-1.3-35.5-2.7-36.8c-3.2-3.2-75.7-59.6-75.7-59.6c-9.4-8.7-12.7-32.8-12.7-32.8l4,3.3c-6-8.7,4.7-27.5,4.7-27.5
	c5.4-12.1,17.4-35.5,17.4-35.5l-1.3,13.4c8-12.7,0.7-44.2,0.7-44.2l7.4,14.1c0-8.7-12.7-38.2-12.7-38.2c-10-17.4-2.7-39.5-2.7-39.5
	l2,15.4c2-4,5.4-35.5,5.4-35.5l3.3,22.8c5.4-17.4,1.3-44.2,1.3-44.2c2,8,18.8,36.8,18.8,36.8c-4.7,37.5,15.4,63.6,15.4,63.6l-4-22.1
	c4,22.1,46.9,48.9,46.9,48.9c7.4,2,24.1,26.8,24.1,26.8c2.7,5.4-6.7,24.8-3.3,23.4c2.8-1.1,6.1-9,7.1-11.3
	c-2.5,7.4,6.3,19.4,6.3,19.4c-3.3,3.3-2,16.7-2,16.7c-3.3,2-2.7,12.1-2.7,12.1c-7.4,3.3-12.1,23.4-12.1,23.4l-5.4-2.7
	c-3.3-11.4-23.4-14.1-23.4-14.1c-6.7-0.7-6.7,10.7-6.7,10.7c-6,5.4,6,18.8,6,18.8c-2,4.7,8,14.7,8,14.7c-6.7,10,30.8,36.2,30.8,36.2
	l36.2,9.4c6.7,6.7,26.8,0,26.8,0c4-7.4,60.3-20.8,60.3-20.8C802.4,829.6,798.4,816.9,798.4,816.9z M59.3,783c0,0,1.9-15.6-1.6-21.5
	c-0.3-0.4-0.4-0.6-0.4-0.6c0.1,0.2,0.3,0.4,0.4,0.6c2.4,3.6,15.3,23,17.7,24.2C75.4,785.7,61.3,786.4,59.3,783z M713.3,785.4
	c-2,3.3-16.1,2.7-16.1,2.7c2.4-1.2,15.3-20.5,17.7-24.2c0.1-0.2,0.3-0.4,0.4-0.6c0,0-0.1,0.2-0.4,0.6
	C711.4,769.8,713.3,785.4,713.3,785.4z"/>
</svg>
